<?xml version="1.0" encoding="utf-8"?>
<!-- Generator: Adobe Illustrator 16.0.0, SVG Export Plug-In . SVG Version: 6.00 Build 0)  -->
<!DOCTYPE svg PUBLIC "-//W3C//DTD SVG 1.1//EN" "http://www.w3.org/Graphics/SVG/1.1/DTD/svg11.dtd">
<svg version="1.1" id="Layer_1" xmlns="http://www.w3.org/2000/svg" xmlns:xlink="http://www.w3.org/1999/xlink" x="0px" y="0px"
	 width="1683.779px" height="468.478px" viewBox="0 366.752 1683.779 468.478" enable-background="new 0 366.752 1683.779 468.478"
	 xml:space="preserve">
<path fill="#D4776B" d="M655.084,631.889v-55.575H477.336v55.575h56.746v198.623h64.276V631.889H655.084L655.084,631.889z"/>
<path fill="#D4776B" d="M931.831,576.325h-64.256v98.768h-93.957v-98.768h-64.256v254.198h64.256v-99.5h93.957v99.5h64.256V576.325z
	"/>
<path fill="#D4776B" d="M1004.975,576.325h64.276v254.198h-64.276V576.325z"/>
<path fill="#D4776B" d="M1303.222,830.523h63.9V576.325h-63.126v157.616l-96.216-157.616h-65.386v254.198h63.137V674.737
	L1303.222,830.523L1303.222,830.523z"/>
<path fill="#D4776B" d="M1670.665,687.81h-105.231v51.936h45.483v22.506c-4.142,3.984-22.935,15.614-56.004,15.614
	c-41.697,0-74.023-29.063-74.023-76.262c0-41.038,27.056-72.611,74.034-72.611c35.328,0,57.876,20.32,63.523,27.589l40.588-40.673
	c-13.521-16.346-45.096-44.312-107.092-44.312c-81.931,0-137.537,58.451-137.537,131.084c0,81.711,61.62,132.548,136.03,132.548
	c60.501,0,92.44-19.243,120.249-39.939V687.81H1670.665z"/>
<g>
	<path fill="#D4776B" d="M327.302,618.074c-45.755,0-82.861,39.961-82.861,89.24c0,49.301,37.096,89.251,82.851,89.251
		c45.734,0,82.819-39.961,82.819-89.261c0-49.29-37.085-89.251-82.83-89.251L327.302,618.074z"/>
	<path fill="#D4776B" d="M167.49,576.325v157.616L14.202,576.325H167.49z"/>
	<path fill="#D4776B" d="M10.092,830.523V672.918l153.276,157.605H10.092z"/>
</g>
<path fill="#D4776B" d="M59.989,475.852c15.488,0,26.125-5.261,32.504-9.925l-6.076-18.479c-5.009,3.451-14.882,8.565-26.428,8.565
	c-19.285,0-33.11-14.579-33.11-34.712c0-19.839,13.825-34.711,33.11-34.711c10.782,0,20.352,4.801,25.519,8.409l6.076-18.627
	c-6.84-4.967-17.466-9.621-31.595-9.621c-32.044,0-55.429,23.594-55.429,54.55C4.56,452.259,26.732,475.852,59.989,475.852z"/>
<path fill="#D4776B" d="M208.37,475.852c32.661,0,55.282-23.594,55.282-54.551c0-30.652-22.621-54.55-55.282-54.55
	c-32.65,0-55.282,23.897-55.282,54.55C153.088,452.259,175.72,475.852,208.37,475.852z M208.37,386.591
	c19.139,0,32.965,14.872,32.965,34.711c0,20.133-13.826,34.712-32.965,34.712c-19.128,0-32.954-14.579-32.954-34.712
	C175.416,401.463,189.242,386.591,208.37,386.591z"/>
<path fill="#D4776B" d="M373.687,475.852c32.651,0,55.282-23.594,55.282-54.551c0-30.652-22.631-54.55-55.282-54.55
	c-32.65,0-55.282,23.897-55.282,54.55C318.405,452.259,341.036,475.852,373.687,475.852z M373.687,386.591
	c19.139,0,32.965,14.872,32.965,34.711c0,20.133-13.826,34.712-32.965,34.712s-32.953-14.579-32.953-34.712
	C340.734,401.463,354.548,386.591,373.687,386.591z"/>
<path fill="#D4776B" d="M492.337,473.896h21.419v-51.088l35.694,51.088h24.598l-39.48-54.854l38.268-50.335h-23.991l-35.088,48.087
	v-48.087h-21.419V473.896L492.337,473.896z"/>
<rect x="645.383" y="368.708" fill="#D4776B" width="21.419" height="105.188"/>
<path fill="#D4776B" d="M814.615,473.896h21.261V368.708H814.76v71.827l-45.409-71.827h-21.712v105.188h21.105v-71.23
	L814.615,473.896z"/>
<path fill="#D4776B" d="M951.223,366.752c-32.348,0-55.125,24.347-55.125,54.55c0,33.205,25.058,54.551,55.125,54.551
	c22.328,0,35.088-7.666,46.477-17.287v-41.624h-40.254v17.884h20.205v12.926c-2.279,2.249-10.636,8.263-25.518,8.263
	c-19.139,0-33.718-13.22-33.718-34.712c0-19.535,12.916-34.867,33.718-34.867c15.186,0,24.305,8.115,27.494,11.577l13.513-13.826
	C987.67,377.722,973.551,366.752,951.223,366.752L951.223,366.752z"/>
<path fill="#D4776B" d="M1238.091,473.896h24.305l28.394-105.188h-23.237l-18.522,78.74l-21.115-78.74h-19.745l-21.104,78.74
	l-18.386-78.74h-23.385l28.552,105.188h24.147l20.049-72.58L1238.091,473.896L1238.091,473.896z"/>
<rect x="1352.125" y="368.708" fill="#D4776B" width="21.418" height="105.188"/>
<path fill="#D4776B" d="M1469.453,473.896h21.408v-86.103h24.755v-19.086h-71.075v19.086h24.912V473.896z"/>
<path fill="#D4776B" d="M1576.771,473.896h21.419v-43.433h44.196v43.433h21.419V368.708h-21.419v42.68h-44.196v-42.68h-21.419
	V473.896z"/>
</svg>
